G04 #@! TF.GenerationSoftware,KiCad,Pcbnew,5.1.5+dfsg1-2build2*
G04 #@! TF.CreationDate,2021-05-11T19:50:18+03:00*
G04 #@! TF.ProjectId,pico-mediakeeb,7069636f-2d6d-4656-9469-616b6565622e,v01*
G04 #@! TF.SameCoordinates,Original*
G04 #@! TF.FileFunction,Copper,L1,Top*
G04 #@! TF.FilePolarity,Positive*
%FSLAX46Y46*%
G04 Gerber Fmt 4.6, Leading zero omitted, Abs format (unit mm)*
G04 Created by KiCad (PCBNEW 5.1.5+dfsg1-2build2) date 2021-05-11 19:50:18*
%MOMM*%
%LPD*%
G04 APERTURE LIST*
%ADD10R,2.000000X2.000000*%
%ADD11C,2.000000*%
%ADD12R,2.000000X3.200000*%
%ADD13O,1.700000X1.700000*%
%ADD14R,1.700000X1.700000*%
%ADD15R,3.500000X1.700000*%
%ADD16R,1.700000X3.500000*%
%ADD17C,2.200000*%
%ADD18O,1.600000X1.600000*%
%ADD19C,1.600000*%
%ADD20C,0.250000*%
G04 APERTURE END LIST*
D10*
X74422000Y-74554000D03*
D11*
X76922000Y-74554000D03*
X79422000Y-74554000D03*
D12*
X71322000Y-67054000D03*
X82522000Y-67054000D03*
D11*
X74422000Y-60054000D03*
X79422000Y-60054000D03*
D13*
X48514000Y-53848000D03*
X48514000Y-56388000D03*
D14*
X48514000Y-58928000D03*
D13*
X48514000Y-61468000D03*
X48514000Y-64008000D03*
X48514000Y-66548000D03*
X48514000Y-69088000D03*
D14*
X48514000Y-71628000D03*
D13*
X48514000Y-74168000D03*
X48514000Y-76708000D03*
X48514000Y-79248000D03*
X48514000Y-81788000D03*
D14*
X48514000Y-84328000D03*
D13*
X48514000Y-86868000D03*
X48514000Y-89408000D03*
X48514000Y-91948000D03*
X48514000Y-94488000D03*
D14*
X48514000Y-97028000D03*
D13*
X48514000Y-99568000D03*
X48514000Y-102108000D03*
X66294000Y-102108000D03*
X66294000Y-99568000D03*
D14*
X66294000Y-97028000D03*
D13*
X66294000Y-94488000D03*
X66294000Y-91948000D03*
X66294000Y-89408000D03*
X66294000Y-86868000D03*
D14*
X66294000Y-84328000D03*
D13*
X66294000Y-81788000D03*
X66294000Y-79248000D03*
X66294000Y-76708000D03*
X66294000Y-74168000D03*
D14*
X66294000Y-71628000D03*
D13*
X66294000Y-69088000D03*
X66294000Y-66548000D03*
X66294000Y-64008000D03*
X66294000Y-61468000D03*
D14*
X66294000Y-58928000D03*
D13*
X66294000Y-56388000D03*
X66294000Y-53848000D03*
D15*
X47614000Y-53848000D03*
X47614000Y-56388000D03*
X47614000Y-58928000D03*
X47614000Y-61468000D03*
X47614000Y-64008000D03*
X47614000Y-66548000D03*
X47614000Y-69088000D03*
X47614000Y-71628000D03*
X47614000Y-74168000D03*
X47614000Y-76708000D03*
X47614000Y-79248000D03*
X47614000Y-81788000D03*
X47614000Y-84328000D03*
X47614000Y-86868000D03*
X47614000Y-89408000D03*
X47614000Y-91948000D03*
X47614000Y-94488000D03*
X47614000Y-97028000D03*
X47614000Y-99568000D03*
X47614000Y-102108000D03*
X67194000Y-53848000D03*
X67194000Y-56388000D03*
X67194000Y-58928000D03*
X67194000Y-61468000D03*
X67194000Y-64008000D03*
X67194000Y-66548000D03*
X67194000Y-69088000D03*
X67194000Y-71628000D03*
X67194000Y-74168000D03*
X67194000Y-76708000D03*
X67194000Y-79248000D03*
X67194000Y-81788000D03*
X67194000Y-84328000D03*
X67194000Y-86868000D03*
X67194000Y-89408000D03*
X67194000Y-91948000D03*
X67194000Y-94488000D03*
X67194000Y-97028000D03*
X67194000Y-99568000D03*
X67194000Y-102108000D03*
D16*
X54864000Y-102778000D03*
D13*
X54864000Y-101878000D03*
D16*
X57404000Y-102778000D03*
D14*
X57404000Y-101878000D03*
D16*
X59944000Y-102778000D03*
D13*
X59944000Y-101878000D03*
D17*
X93472000Y-123444000D03*
X99822000Y-120904000D03*
X73152000Y-123444000D03*
X79502000Y-120904000D03*
X52832000Y-123444000D03*
X59182000Y-120904000D03*
X93472000Y-143764000D03*
X99822000Y-141224000D03*
X73152000Y-143764000D03*
X79502000Y-141224000D03*
X52832000Y-143764000D03*
X59182000Y-141224000D03*
D18*
X74168000Y-87630000D03*
D19*
X81788000Y-87630000D03*
D18*
X79248000Y-80518000D03*
D19*
X86868000Y-80518000D03*
D20*
X76708000Y-79502000D02*
X76708000Y-100330000D01*
X74930000Y-102108000D02*
X66294000Y-102108000D01*
X76708000Y-100330000D02*
X74930000Y-102108000D01*
X79422000Y-76788000D02*
X76962000Y-79248000D01*
X76962000Y-79248000D02*
X76708000Y-79502000D01*
X79422000Y-74554000D02*
X79422000Y-76788000D01*
X78422001Y-77787999D02*
X76962000Y-79248000D01*
X48514000Y-139446000D02*
X52832000Y-143764000D01*
X48514000Y-102108000D02*
X48514000Y-139446000D01*
X48514000Y-94488000D02*
X51308000Y-97282000D01*
X51308000Y-97282000D02*
X51308000Y-113030000D01*
X51308000Y-113030000D02*
X52832000Y-114554000D01*
X52832000Y-114554000D02*
X63500000Y-114554000D01*
X63500000Y-114554000D02*
X67056000Y-118110000D01*
X67056000Y-118110000D02*
X67056000Y-135382000D01*
X73152000Y-141478000D02*
X73152000Y-143764000D01*
X67056000Y-135382000D02*
X73152000Y-141478000D01*
X48514000Y-89408000D02*
X55626000Y-89408000D01*
X55626000Y-89408000D02*
X61976000Y-95758000D01*
X61976000Y-95758000D02*
X61976000Y-106934000D01*
X61976000Y-106934000D02*
X70612000Y-115570000D01*
X70612000Y-115570000D02*
X83820000Y-115570000D01*
X83820000Y-115570000D02*
X86868000Y-118618000D01*
X86868000Y-118618000D02*
X86868000Y-133858000D01*
X93472000Y-140462000D02*
X93472000Y-143764000D01*
X86868000Y-133858000D02*
X93472000Y-140462000D01*
X48514000Y-99568000D02*
X50038000Y-99568000D01*
X50038000Y-99568000D02*
X50292000Y-99822000D01*
X50292000Y-99822000D02*
X50292000Y-116586000D01*
X52832000Y-119126000D02*
X52832000Y-123444000D01*
X50292000Y-116586000D02*
X52832000Y-119126000D01*
X48514000Y-91948000D02*
X52324000Y-95758000D01*
X52324000Y-95758000D02*
X52324000Y-112014000D01*
X52324000Y-112014000D02*
X53848000Y-113538000D01*
X53848000Y-113538000D02*
X66040000Y-113538000D01*
X73152000Y-120650000D02*
X73152000Y-123444000D01*
X66040000Y-113538000D02*
X73152000Y-120650000D01*
X48514000Y-86868000D02*
X54610000Y-86868000D01*
X54610000Y-86868000D02*
X63500000Y-95758000D01*
X63500000Y-95758000D02*
X63500000Y-106426000D01*
X63500000Y-106426000D02*
X71628000Y-114554000D01*
X71628000Y-114554000D02*
X88900000Y-114554000D01*
X93472000Y-119126000D02*
X93472000Y-123444000D01*
X88900000Y-114554000D02*
X93472000Y-119126000D01*
X76922000Y-74554000D02*
X76922000Y-58126000D01*
X76922000Y-58126000D02*
X76200000Y-57404000D01*
X76200000Y-57404000D02*
X71628000Y-57404000D01*
X70104000Y-58928000D02*
X66294000Y-58928000D01*
X71628000Y-57404000D02*
X70104000Y-58928000D01*
X67496081Y-94488000D02*
X66294000Y-94488000D01*
X67839002Y-94488000D02*
X67496081Y-94488000D01*
X69850000Y-94488000D02*
X66294000Y-94488000D01*
X70612000Y-75438000D02*
X70612000Y-93726000D01*
X70612000Y-93726000D02*
X69850000Y-94488000D01*
X74422000Y-71628000D02*
X70612000Y-75438000D01*
X74422000Y-60054000D02*
X74422000Y-71628000D01*
X70358000Y-99568000D02*
X66294000Y-99568000D01*
X71628000Y-98298000D02*
X70358000Y-99568000D01*
X71628000Y-79756000D02*
X71628000Y-80264000D01*
X74422000Y-76962000D02*
X71628000Y-79756000D01*
X74422000Y-74554000D02*
X74422000Y-76962000D01*
X71628000Y-80264000D02*
X71628000Y-98298000D01*
M02*
