M48
; DRILL file {KiCad 5.1.5+dfsg1-2build2} date Du 16 mai 2021 21:52:51 +0300
; FORMAT={-:-/ absolute / inch / decimal}
; #@! TF.CreationDate,2021-05-16T21:52:51+03:00
; #@! TF.GenerationSoftware,Kicad,Pcbnew,5.1.5+dfsg1-2build2
; #@! TF.FileFunction,Plated,1,2,PTH
FMAT,2
INCH
T1C0.0315
T2C0.0394
T3C0.0402
T4C0.0591
%
G90
G05
T1
X3.12Y-3.17
X3.42Y-3.17
X2.92Y-3.45
X3.22Y-3.45
T2
X2.93Y-2.3643
X2.93Y-2.9352
X3.0284Y-2.9352
X3.1269Y-2.3643
X3.1269Y-2.9352
T3
X1.91Y-2.12
X1.91Y-2.22
X1.91Y-2.32
X1.91Y-2.42
X1.91Y-2.52
X1.91Y-2.62
X1.91Y-2.72
X1.91Y-2.82
X1.91Y-2.92
X1.91Y-3.02
X1.91Y-3.12
X1.91Y-3.22
X1.91Y-3.32
X1.91Y-3.42
X1.91Y-3.52
X1.91Y-3.62
X1.91Y-3.72
X1.91Y-3.82
X1.91Y-3.92
X1.91Y-4.02
X2.16Y-4.0109
X2.26Y-4.0109
X2.36Y-4.0109
X2.61Y-2.12
X2.61Y-2.22
X2.61Y-2.32
X2.61Y-2.42
X2.61Y-2.52
X2.61Y-2.62
X2.61Y-2.72
X2.61Y-2.82
X2.61Y-2.92
X2.61Y-3.02
X2.61Y-3.12
X2.61Y-3.22
X2.61Y-3.32
X2.61Y-3.42
X2.61Y-3.52
X2.61Y-3.62
X2.61Y-3.72
X2.61Y-3.82
X2.61Y-3.92
X2.61Y-4.02
T4
X2.08Y-5.66
X2.33Y-5.56
X2.88Y-5.66
X3.13Y-5.56
X2.88Y-4.86
X3.13Y-4.76
X3.68Y-4.86
X3.93Y-4.76
X3.68Y-5.66
X3.93Y-5.56
X2.08Y-4.86
X2.33Y-4.76
T4
G00X2.808Y-2.6655
M15
G01X2.808Y-2.6143
M16
G05
G00X3.2489Y-2.6655
M15
G01X3.2489Y-2.6143
M16
G05
T0
M30
