G04 #@! TF.GenerationSoftware,KiCad,Pcbnew,5.1.5+dfsg1-2build2*
G04 #@! TF.CreationDate,2021-05-11T19:50:18+03:00*
G04 #@! TF.ProjectId,pico-mediakeeb,7069636f-2d6d-4656-9469-616b6565622e,v01*
G04 #@! TF.SameCoordinates,Original*
G04 #@! TF.FileFunction,Soldermask,Top*
G04 #@! TF.FilePolarity,Negative*
%FSLAX46Y46*%
G04 Gerber Fmt 4.6, Leading zero omitted, Abs format (unit mm)*
G04 Created by KiCad (PCBNEW 5.1.5+dfsg1-2build2) date 2021-05-11 19:50:18*
%MOMM*%
%LPD*%
G04 APERTURE LIST*
%ADD10R,2.000000X2.000000*%
%ADD11C,2.000000*%
%ADD12R,2.000000X3.200000*%
%ADD13O,1.700000X1.700000*%
%ADD14R,1.700000X1.700000*%
%ADD15R,3.500000X1.700000*%
%ADD16O,1.800000X1.800000*%
%ADD17O,1.500000X1.500000*%
%ADD18R,1.700000X3.500000*%
%ADD19C,4.000000*%
%ADD20C,2.200000*%
%ADD21O,1.600000X1.600000*%
%ADD22C,1.600000*%
G04 APERTURE END LIST*
D10*
X74422000Y-74554000D03*
D11*
X76922000Y-74554000D03*
X79422000Y-74554000D03*
D12*
X71322000Y-67054000D03*
X82522000Y-67054000D03*
D11*
X74422000Y-60054000D03*
X79422000Y-60054000D03*
D13*
X48514000Y-53848000D03*
X48514000Y-56388000D03*
D14*
X48514000Y-58928000D03*
D13*
X48514000Y-61468000D03*
X48514000Y-64008000D03*
X48514000Y-66548000D03*
X48514000Y-69088000D03*
D14*
X48514000Y-71628000D03*
D13*
X48514000Y-74168000D03*
X48514000Y-76708000D03*
X48514000Y-79248000D03*
X48514000Y-81788000D03*
D14*
X48514000Y-84328000D03*
D13*
X48514000Y-86868000D03*
X48514000Y-89408000D03*
X48514000Y-91948000D03*
X48514000Y-94488000D03*
D14*
X48514000Y-97028000D03*
D13*
X48514000Y-99568000D03*
X48514000Y-102108000D03*
X66294000Y-102108000D03*
X66294000Y-99568000D03*
D14*
X66294000Y-97028000D03*
D13*
X66294000Y-94488000D03*
X66294000Y-91948000D03*
X66294000Y-89408000D03*
X66294000Y-86868000D03*
D14*
X66294000Y-84328000D03*
D13*
X66294000Y-81788000D03*
X66294000Y-79248000D03*
X66294000Y-76708000D03*
X66294000Y-74168000D03*
D14*
X66294000Y-71628000D03*
D13*
X66294000Y-69088000D03*
X66294000Y-66548000D03*
X66294000Y-64008000D03*
X66294000Y-61468000D03*
D14*
X66294000Y-58928000D03*
D13*
X66294000Y-56388000D03*
X66294000Y-53848000D03*
D15*
X47614000Y-53848000D03*
X47614000Y-56388000D03*
X47614000Y-58928000D03*
X47614000Y-61468000D03*
X47614000Y-64008000D03*
X47614000Y-66548000D03*
X47614000Y-69088000D03*
X47614000Y-71628000D03*
X47614000Y-74168000D03*
X47614000Y-76708000D03*
X47614000Y-79248000D03*
X47614000Y-81788000D03*
X47614000Y-84328000D03*
X47614000Y-86868000D03*
X47614000Y-89408000D03*
X47614000Y-91948000D03*
X47614000Y-94488000D03*
X47614000Y-97028000D03*
X47614000Y-99568000D03*
X47614000Y-102108000D03*
X67194000Y-53848000D03*
X67194000Y-56388000D03*
X67194000Y-58928000D03*
X67194000Y-61468000D03*
X67194000Y-64008000D03*
X67194000Y-66548000D03*
X67194000Y-69088000D03*
X67194000Y-71628000D03*
X67194000Y-74168000D03*
X67194000Y-76708000D03*
X67194000Y-79248000D03*
X67194000Y-81788000D03*
X67194000Y-84328000D03*
X67194000Y-86868000D03*
X67194000Y-89408000D03*
X67194000Y-91948000D03*
X67194000Y-94488000D03*
X67194000Y-97028000D03*
X67194000Y-99568000D03*
X67194000Y-102108000D03*
D16*
X54679000Y-53978000D03*
X60129000Y-53978000D03*
D17*
X54979000Y-57008000D03*
X59829000Y-57008000D03*
D18*
X54864000Y-102778000D03*
D13*
X54864000Y-101878000D03*
D18*
X57404000Y-102778000D03*
D14*
X57404000Y-101878000D03*
D18*
X59944000Y-102778000D03*
D13*
X59944000Y-101878000D03*
D19*
X97282000Y-125984000D03*
D20*
X93472000Y-123444000D03*
X99822000Y-120904000D03*
D19*
X76962000Y-125984000D03*
D20*
X73152000Y-123444000D03*
X79502000Y-120904000D03*
D19*
X56642000Y-125984000D03*
D20*
X52832000Y-123444000D03*
X59182000Y-120904000D03*
D19*
X97282000Y-146304000D03*
D20*
X93472000Y-143764000D03*
X99822000Y-141224000D03*
D19*
X76962000Y-146304000D03*
D20*
X73152000Y-143764000D03*
X79502000Y-141224000D03*
D19*
X56642000Y-146304000D03*
D20*
X52832000Y-143764000D03*
X59182000Y-141224000D03*
D21*
X74168000Y-87630000D03*
D22*
X81788000Y-87630000D03*
D21*
X79248000Y-80518000D03*
D22*
X86868000Y-80518000D03*
M02*
