G04 #@! TF.GenerationSoftware,KiCad,Pcbnew,5.1.5+dfsg1-2build2*
G04 #@! TF.CreationDate,2021-05-16T21:52:53+03:00*
G04 #@! TF.ProjectId,pico-mediakeeb,7069636f-2d6d-4656-9469-616b6565622e,v01*
G04 #@! TF.SameCoordinates,Original*
G04 #@! TF.FileFunction,Copper,L2,Bot*
G04 #@! TF.FilePolarity,Positive*
%FSLAX46Y46*%
G04 Gerber Fmt 4.6, Leading zero omitted, Abs format (unit mm)*
G04 Created by KiCad (PCBNEW 5.1.5+dfsg1-2build2) date 2021-05-16 21:52:53*
%MOMM*%
%LPD*%
G04 APERTURE LIST*
%ADD10C,2.200000*%
%ADD11R,2.000000X2.000000*%
%ADD12C,2.000000*%
%ADD13R,2.000000X3.200000*%
%ADD14O,1.700000X1.700000*%
%ADD15R,1.700000X1.700000*%
%ADD16O,1.600000X1.600000*%
%ADD17C,1.600000*%
%ADD18C,0.250000*%
G04 APERTURE END LIST*
D10*
X93472000Y-123444000D03*
X99822000Y-120904000D03*
X73152000Y-123444000D03*
X79502000Y-120904000D03*
X52832000Y-123444000D03*
X59182000Y-120904000D03*
X93472000Y-143764000D03*
X99822000Y-141224000D03*
X73152000Y-143764000D03*
X79502000Y-141224000D03*
X52832000Y-143764000D03*
X59182000Y-141224000D03*
D11*
X74422000Y-74554000D03*
D12*
X76922000Y-74554000D03*
X79422000Y-74554000D03*
D13*
X71322000Y-67054000D03*
X82522000Y-67054000D03*
D12*
X74422000Y-60054000D03*
X79422000Y-60054000D03*
D14*
X48514000Y-53848000D03*
X48514000Y-56388000D03*
D15*
X48514000Y-58928000D03*
D14*
X48514000Y-61468000D03*
X48514000Y-64008000D03*
X48514000Y-66548000D03*
X48514000Y-69088000D03*
D15*
X48514000Y-71628000D03*
D14*
X48514000Y-74168000D03*
X48514000Y-76708000D03*
X48514000Y-79248000D03*
X48514000Y-81788000D03*
D15*
X48514000Y-84328000D03*
D14*
X48514000Y-86868000D03*
X48514000Y-89408000D03*
X48514000Y-91948000D03*
X48514000Y-94488000D03*
D15*
X48514000Y-97028000D03*
D14*
X48514000Y-99568000D03*
X48514000Y-102108000D03*
X66294000Y-102108000D03*
X66294000Y-99568000D03*
D15*
X66294000Y-97028000D03*
D14*
X66294000Y-94488000D03*
X66294000Y-91948000D03*
X66294000Y-89408000D03*
X66294000Y-86868000D03*
D15*
X66294000Y-84328000D03*
D14*
X66294000Y-81788000D03*
X66294000Y-79248000D03*
X66294000Y-76708000D03*
X66294000Y-74168000D03*
D15*
X66294000Y-71628000D03*
D14*
X66294000Y-69088000D03*
X66294000Y-66548000D03*
X66294000Y-64008000D03*
X66294000Y-61468000D03*
D15*
X66294000Y-58928000D03*
D14*
X66294000Y-56388000D03*
X66294000Y-53848000D03*
X54864000Y-101878000D03*
D15*
X57404000Y-101878000D03*
D14*
X59944000Y-101878000D03*
D16*
X74168000Y-87630000D03*
D17*
X81788000Y-87630000D03*
D16*
X79248000Y-80518000D03*
D17*
X86868000Y-80518000D03*
D18*
X79422000Y-80344000D02*
X79248000Y-80518000D01*
X79422000Y-74554000D02*
X79422000Y-80344000D01*
X59182000Y-141224000D02*
X99822000Y-141224000D01*
X59182000Y-141224000D02*
X59182000Y-120904000D01*
X59182000Y-120904000D02*
X99822000Y-120904000D01*
X65091919Y-64008000D02*
X62992000Y-66107919D01*
X66294000Y-64008000D02*
X65091919Y-64008000D01*
X59182000Y-116840000D02*
X60706000Y-115316000D01*
X59182000Y-120904000D02*
X59182000Y-116840000D01*
X60706000Y-115316000D02*
X61976000Y-115316000D01*
X61976000Y-115316000D02*
X62992000Y-114300000D01*
X62992000Y-66107919D02*
X62992000Y-114300000D01*
X99822000Y-115316000D02*
X99822000Y-120904000D01*
X91440000Y-113284000D02*
X97790000Y-113284000D01*
X86868000Y-108712000D02*
X91440000Y-113284000D01*
X97790000Y-113284000D02*
X99822000Y-115316000D01*
X86868000Y-80518000D02*
X86868000Y-108712000D01*
X79502000Y-115316000D02*
X81788000Y-113030000D01*
X79502000Y-120904000D02*
X79502000Y-115316000D01*
X81788000Y-87630000D02*
X81788000Y-113030000D01*
X79422000Y-60054000D02*
X79422000Y-64088000D01*
X79422000Y-64088000D02*
X70612000Y-72898000D01*
X70612000Y-72898000D02*
X70612000Y-96266000D01*
X69850000Y-97028000D02*
X66294000Y-97028000D01*
X70612000Y-96266000D02*
X69850000Y-97028000D01*
X74422000Y-87376000D02*
X74168000Y-87630000D01*
X74422000Y-74554000D02*
X74422000Y-87376000D01*
M02*
