G04 #@! TF.GenerationSoftware,KiCad,Pcbnew,5.1.5+dfsg1-2build2*
G04 #@! TF.CreationDate,2021-05-11T19:50:18+03:00*
G04 #@! TF.ProjectId,pico-mediakeeb,7069636f-2d6d-4656-9469-616b6565622e,v01*
G04 #@! TF.SameCoordinates,Original*
G04 #@! TF.FileFunction,Legend,Top*
G04 #@! TF.FilePolarity,Positive*
%FSLAX46Y46*%
G04 Gerber Fmt 4.6, Leading zero omitted, Abs format (unit mm)*
G04 Created by KiCad (PCBNEW 5.1.5+dfsg1-2build2) date 2021-05-11 19:50:18*
%MOMM*%
%LPD*%
G04 APERTURE LIST*
%ADD10C,0.150000*%
%ADD11C,0.120000*%
G04 APERTURE END LIST*
D10*
X78398761Y-88082380D02*
X77827333Y-88082380D01*
X78113047Y-88082380D02*
X78113047Y-87082380D01*
X78017809Y-87225238D01*
X77922571Y-87320476D01*
X77827333Y-87368095D01*
X79017809Y-87082380D02*
X79113047Y-87082380D01*
X79208285Y-87130000D01*
X79255904Y-87177619D01*
X79303523Y-87272857D01*
X79351142Y-87463333D01*
X79351142Y-87701428D01*
X79303523Y-87891904D01*
X79255904Y-87987142D01*
X79208285Y-88034761D01*
X79113047Y-88082380D01*
X79017809Y-88082380D01*
X78922571Y-88034761D01*
X78874952Y-87987142D01*
X78827333Y-87891904D01*
X78779714Y-87701428D01*
X78779714Y-87463333D01*
X78827333Y-87272857D01*
X78874952Y-87177619D01*
X78922571Y-87130000D01*
X79017809Y-87082380D01*
X79779714Y-88082380D02*
X79779714Y-87082380D01*
X79874952Y-87701428D02*
X80160666Y-88082380D01*
X80160666Y-87415714D02*
X79779714Y-87796666D01*
X83478761Y-80970380D02*
X82907333Y-80970380D01*
X83193047Y-80970380D02*
X83193047Y-79970380D01*
X83097809Y-80113238D01*
X83002571Y-80208476D01*
X82907333Y-80256095D01*
X84097809Y-79970380D02*
X84193047Y-79970380D01*
X84288285Y-80018000D01*
X84335904Y-80065619D01*
X84383523Y-80160857D01*
X84431142Y-80351333D01*
X84431142Y-80589428D01*
X84383523Y-80779904D01*
X84335904Y-80875142D01*
X84288285Y-80922761D01*
X84193047Y-80970380D01*
X84097809Y-80970380D01*
X84002571Y-80922761D01*
X83954952Y-80875142D01*
X83907333Y-80779904D01*
X83859714Y-80589428D01*
X83859714Y-80351333D01*
X83907333Y-80160857D01*
X83954952Y-80065619D01*
X84002571Y-80018000D01*
X84097809Y-79970380D01*
X84859714Y-80970380D02*
X84859714Y-79970380D01*
X84954952Y-80589428D02*
X85240666Y-80970380D01*
X85240666Y-80303714D02*
X84859714Y-80684666D01*
X56904000Y-107187904D02*
X56856380Y-107283142D01*
X56856380Y-107426000D01*
X56904000Y-107568857D01*
X56999238Y-107664095D01*
X57094476Y-107711714D01*
X57284952Y-107759333D01*
X57427809Y-107759333D01*
X57618285Y-107711714D01*
X57713523Y-107664095D01*
X57808761Y-107568857D01*
X57856380Y-107426000D01*
X57856380Y-107330761D01*
X57808761Y-107187904D01*
X57761142Y-107140285D01*
X57427809Y-107140285D01*
X57427809Y-107330761D01*
X57856380Y-106711714D02*
X56856380Y-106711714D01*
X57856380Y-106140285D01*
X56856380Y-106140285D01*
X57856380Y-105664095D02*
X56856380Y-105664095D01*
X56856380Y-105426000D01*
X56904000Y-105283142D01*
X56999238Y-105187904D01*
X57094476Y-105140285D01*
X57284952Y-105092666D01*
X57427809Y-105092666D01*
X57618285Y-105140285D01*
X57713523Y-105187904D01*
X57808761Y-105283142D01*
X57856380Y-105426000D01*
X57856380Y-105664095D01*
D11*
X79922000Y-67054000D02*
G75*
G03X79922000Y-67054000I-3000000J0D01*
G01*
X71022000Y-65054000D02*
X71022000Y-60954000D01*
X82822000Y-60954000D02*
X82822000Y-65054000D01*
X82822000Y-69054000D02*
X82822000Y-73154000D01*
X71022000Y-69054000D02*
X71022000Y-73154000D01*
X71022000Y-73154000D02*
X82822000Y-73154000D01*
X73122000Y-74554000D02*
X72822000Y-74854000D01*
X72822000Y-74854000D02*
X72822000Y-74254000D01*
X72822000Y-74254000D02*
X73122000Y-74554000D01*
X71022000Y-60954000D02*
X73422000Y-60954000D01*
X75622000Y-60954000D02*
X78222000Y-60954000D01*
X80422000Y-60954000D02*
X82822000Y-60954000D01*
X76422000Y-67054000D02*
X77422000Y-67054000D01*
X76922000Y-67554000D02*
X76922000Y-66554000D01*
X58504000Y-103478000D02*
X58904000Y-103478000D01*
X55904000Y-103478000D02*
X56304000Y-103478000D01*
X67904000Y-103478000D02*
X61104000Y-103478000D01*
X67904000Y-93078000D02*
X67904000Y-93478000D01*
X67904000Y-85378000D02*
X67904000Y-85778000D01*
X67904000Y-59978000D02*
X67904000Y-60378000D01*
X67904000Y-52478000D02*
X67904000Y-52778000D01*
X67904000Y-75278000D02*
X67904000Y-75678000D01*
X67904000Y-90478000D02*
X67904000Y-90878000D01*
X67904000Y-70178000D02*
X67904000Y-70578000D01*
X67904000Y-65078000D02*
X67904000Y-65478000D01*
X67904000Y-77778000D02*
X67904000Y-78178000D01*
X67904000Y-82878000D02*
X67904000Y-83278000D01*
X67904000Y-98078000D02*
X67904000Y-98478000D01*
X67904000Y-100678000D02*
X67904000Y-101078000D01*
X67904000Y-95578000D02*
X67904000Y-95978000D01*
X67904000Y-62578000D02*
X67904000Y-62978000D01*
X67904000Y-54878000D02*
X67904000Y-55278000D01*
X67904000Y-57478000D02*
X67904000Y-57878000D01*
X67904000Y-87978000D02*
X67904000Y-88378000D01*
X67904000Y-80278000D02*
X67904000Y-80678000D01*
X67904000Y-72678000D02*
X67904000Y-73078000D01*
X67904000Y-67578000D02*
X67904000Y-67978000D01*
X46904000Y-100678000D02*
X46904000Y-101078000D01*
X46904000Y-98078000D02*
X46904000Y-98478000D01*
X46904000Y-95578000D02*
X46904000Y-95978000D01*
X46904000Y-93078000D02*
X46904000Y-93478000D01*
X46904000Y-90478000D02*
X46904000Y-90878000D01*
X46904000Y-87978000D02*
X46904000Y-88378000D01*
X46904000Y-85378000D02*
X46904000Y-85778000D01*
X46904000Y-82878000D02*
X46904000Y-83278000D01*
X46904000Y-80278000D02*
X46904000Y-80678000D01*
X46904000Y-77778000D02*
X46904000Y-78178000D01*
X46904000Y-75278000D02*
X46904000Y-75678000D01*
X46904000Y-72678000D02*
X46904000Y-73078000D01*
X46904000Y-70178000D02*
X46904000Y-70578000D01*
X46904000Y-67578000D02*
X46904000Y-67978000D01*
X46904000Y-65078000D02*
X46904000Y-65478000D01*
X46904000Y-62578000D02*
X46904000Y-62978000D01*
X46904000Y-59978000D02*
X46904000Y-60378000D01*
X46904000Y-57478000D02*
X46904000Y-57878000D01*
X46904000Y-54878000D02*
X46904000Y-55278000D01*
X46904000Y-52478000D02*
X46904000Y-52778000D01*
X49911000Y-55145000D02*
X49911000Y-52478000D01*
X46904000Y-55145000D02*
X49911000Y-55145000D01*
X53704000Y-103478000D02*
X46904000Y-103478000D01*
X46904000Y-52478000D02*
X67904000Y-52478000D01*
X90297000Y-132969000D02*
X90297000Y-118999000D01*
X104267000Y-132969000D02*
X90297000Y-132969000D01*
X104267000Y-118999000D02*
X104267000Y-132969000D01*
X90297000Y-118999000D02*
X104267000Y-118999000D01*
X69977000Y-132969000D02*
X69977000Y-118999000D01*
X83947000Y-132969000D02*
X69977000Y-132969000D01*
X83947000Y-118999000D02*
X83947000Y-132969000D01*
X69977000Y-118999000D02*
X83947000Y-118999000D01*
X49657000Y-132969000D02*
X49657000Y-118999000D01*
X63627000Y-132969000D02*
X49657000Y-132969000D01*
X63627000Y-118999000D02*
X63627000Y-132969000D01*
X49657000Y-118999000D02*
X63627000Y-118999000D01*
X90297000Y-153289000D02*
X90297000Y-139319000D01*
X104267000Y-153289000D02*
X90297000Y-153289000D01*
X104267000Y-139319000D02*
X104267000Y-153289000D01*
X90297000Y-139319000D02*
X104267000Y-139319000D01*
X69977000Y-153289000D02*
X69977000Y-139319000D01*
X83947000Y-153289000D02*
X69977000Y-153289000D01*
X83947000Y-139319000D02*
X83947000Y-153289000D01*
X69977000Y-139319000D02*
X83947000Y-139319000D01*
X49657000Y-153289000D02*
X49657000Y-139319000D01*
X63627000Y-153289000D02*
X49657000Y-153289000D01*
X63627000Y-139319000D02*
X63627000Y-153289000D01*
X49657000Y-139319000D02*
X63627000Y-139319000D01*
X74708000Y-86260000D02*
X74708000Y-86590000D01*
X81248000Y-86260000D02*
X74708000Y-86260000D01*
X81248000Y-86590000D02*
X81248000Y-86260000D01*
X74708000Y-89000000D02*
X74708000Y-88670000D01*
X81248000Y-89000000D02*
X74708000Y-89000000D01*
X81248000Y-88670000D02*
X81248000Y-89000000D01*
X79788000Y-79148000D02*
X79788000Y-79478000D01*
X86328000Y-79148000D02*
X79788000Y-79148000D01*
X86328000Y-79478000D02*
X86328000Y-79148000D01*
X79788000Y-81888000D02*
X79788000Y-81558000D01*
X86328000Y-81888000D02*
X79788000Y-81888000D01*
X86328000Y-81558000D02*
X86328000Y-81888000D01*
D10*
X77478190Y-72080380D02*
X77144857Y-71604190D01*
X76906761Y-72080380D02*
X76906761Y-71080380D01*
X77287714Y-71080380D01*
X77382952Y-71128000D01*
X77430571Y-71175619D01*
X77478190Y-71270857D01*
X77478190Y-71413714D01*
X77430571Y-71508952D01*
X77382952Y-71556571D01*
X77287714Y-71604190D01*
X76906761Y-71604190D01*
X78097238Y-71080380D02*
X78287714Y-71080380D01*
X78382952Y-71128000D01*
X78478190Y-71223238D01*
X78525809Y-71413714D01*
X78525809Y-71747047D01*
X78478190Y-71937523D01*
X78382952Y-72032761D01*
X78287714Y-72080380D01*
X78097238Y-72080380D01*
X78002000Y-72032761D01*
X77906761Y-71937523D01*
X77859142Y-71747047D01*
X77859142Y-71413714D01*
X77906761Y-71223238D01*
X78002000Y-71128000D01*
X78097238Y-71080380D01*
X78811523Y-71080380D02*
X79382952Y-71080380D01*
X79097238Y-72080380D02*
X79097238Y-71080380D01*
X79478190Y-72175619D02*
X80240095Y-72175619D01*
X80430571Y-72032761D02*
X80573428Y-72080380D01*
X80811523Y-72080380D01*
X80906761Y-72032761D01*
X80954380Y-71985142D01*
X81002000Y-71889904D01*
X81002000Y-71794666D01*
X80954380Y-71699428D01*
X80906761Y-71651809D01*
X80811523Y-71604190D01*
X80621047Y-71556571D01*
X80525809Y-71508952D01*
X80478190Y-71461333D01*
X80430571Y-71366095D01*
X80430571Y-71270857D01*
X80478190Y-71175619D01*
X80525809Y-71128000D01*
X80621047Y-71080380D01*
X80859142Y-71080380D01*
X81002000Y-71128000D01*
X81335333Y-71080380D02*
X81573428Y-72080380D01*
X81763904Y-71366095D01*
X81954380Y-72080380D01*
X82192476Y-71080380D01*
X54904000Y-78430380D02*
X54904000Y-77430380D01*
X55284952Y-77430380D01*
X55380190Y-77478000D01*
X55427809Y-77525619D01*
X55475428Y-77620857D01*
X55475428Y-77763714D01*
X55427809Y-77858952D01*
X55380190Y-77906571D01*
X55284952Y-77954190D01*
X54904000Y-77954190D01*
X55904000Y-78430380D02*
X55904000Y-77763714D01*
X55904000Y-77430380D02*
X55856380Y-77478000D01*
X55904000Y-77525619D01*
X55951619Y-77478000D01*
X55904000Y-77430380D01*
X55904000Y-77525619D01*
X57142095Y-78430380D02*
X57142095Y-77430380D01*
X57523047Y-77430380D01*
X57618285Y-77478000D01*
X57665904Y-77525619D01*
X57713523Y-77620857D01*
X57713523Y-77763714D01*
X57665904Y-77858952D01*
X57618285Y-77906571D01*
X57523047Y-77954190D01*
X57142095Y-77954190D01*
X58142095Y-78430380D02*
X58142095Y-77763714D01*
X58142095Y-77430380D02*
X58094476Y-77478000D01*
X58142095Y-77525619D01*
X58189714Y-77478000D01*
X58142095Y-77430380D01*
X58142095Y-77525619D01*
X59046857Y-78382761D02*
X58951619Y-78430380D01*
X58761142Y-78430380D01*
X58665904Y-78382761D01*
X58618285Y-78335142D01*
X58570666Y-78239904D01*
X58570666Y-77954190D01*
X58618285Y-77858952D01*
X58665904Y-77811333D01*
X58761142Y-77763714D01*
X58951619Y-77763714D01*
X59046857Y-77811333D01*
X59618285Y-78430380D02*
X59523047Y-78382761D01*
X59475428Y-78335142D01*
X59427809Y-78239904D01*
X59427809Y-77954190D01*
X59475428Y-77858952D01*
X59523047Y-77811333D01*
X59618285Y-77763714D01*
X59761142Y-77763714D01*
X59856380Y-77811333D01*
X59904000Y-77858952D01*
X59951619Y-77954190D01*
X59951619Y-78239904D01*
X59904000Y-78335142D01*
X59856380Y-78382761D01*
X59761142Y-78430380D01*
X59618285Y-78430380D01*
X55187809Y-108743523D02*
X55225904Y-108629238D01*
X55225904Y-108438761D01*
X55187809Y-108362571D01*
X55149714Y-108324476D01*
X55073523Y-108286380D01*
X54997333Y-108286380D01*
X54921142Y-108324476D01*
X54883047Y-108362571D01*
X54844952Y-108438761D01*
X54806857Y-108591142D01*
X54768761Y-108667333D01*
X54730666Y-108705428D01*
X54654476Y-108743523D01*
X54578285Y-108743523D01*
X54502095Y-108705428D01*
X54464000Y-108667333D01*
X54425904Y-108591142D01*
X54425904Y-108400666D01*
X54464000Y-108286380D01*
X54425904Y-108019714D02*
X55225904Y-107829238D01*
X54654476Y-107676857D01*
X55225904Y-107524476D01*
X54425904Y-107334000D01*
X55149714Y-106572095D02*
X55187809Y-106610190D01*
X55225904Y-106724476D01*
X55225904Y-106800666D01*
X55187809Y-106914952D01*
X55111619Y-106991142D01*
X55035428Y-107029238D01*
X54883047Y-107067333D01*
X54768761Y-107067333D01*
X54616380Y-107029238D01*
X54540190Y-106991142D01*
X54464000Y-106914952D01*
X54425904Y-106800666D01*
X54425904Y-106724476D01*
X54464000Y-106610190D01*
X54502095Y-106572095D01*
X55225904Y-105848285D02*
X55225904Y-106229238D01*
X54425904Y-106229238D01*
X55225904Y-105581619D02*
X54425904Y-105581619D01*
X55225904Y-105124476D02*
X54768761Y-105467333D01*
X54425904Y-105124476D02*
X54883047Y-105581619D01*
X60267809Y-108629238D02*
X60305904Y-108514952D01*
X60305904Y-108324476D01*
X60267809Y-108248285D01*
X60229714Y-108210190D01*
X60153523Y-108172095D01*
X60077333Y-108172095D01*
X60001142Y-108210190D01*
X59963047Y-108248285D01*
X59924952Y-108324476D01*
X59886857Y-108476857D01*
X59848761Y-108553047D01*
X59810666Y-108591142D01*
X59734476Y-108629238D01*
X59658285Y-108629238D01*
X59582095Y-108591142D01*
X59544000Y-108553047D01*
X59505904Y-108476857D01*
X59505904Y-108286380D01*
X59544000Y-108172095D01*
X59505904Y-107905428D02*
X60305904Y-107714952D01*
X59734476Y-107562571D01*
X60305904Y-107410190D01*
X59505904Y-107219714D01*
X60305904Y-106914952D02*
X59505904Y-106914952D01*
X59505904Y-106724476D01*
X59544000Y-106610190D01*
X59620190Y-106534000D01*
X59696380Y-106495904D01*
X59848761Y-106457809D01*
X59963047Y-106457809D01*
X60115428Y-106495904D01*
X60191619Y-106534000D01*
X60267809Y-106610190D01*
X60305904Y-106724476D01*
X60305904Y-106914952D01*
X60305904Y-106114952D02*
X59505904Y-106114952D01*
X59505904Y-105581619D02*
X59505904Y-105429238D01*
X59544000Y-105353047D01*
X59620190Y-105276857D01*
X59772571Y-105238761D01*
X60039238Y-105238761D01*
X60191619Y-105276857D01*
X60267809Y-105353047D01*
X60305904Y-105429238D01*
X60305904Y-105581619D01*
X60267809Y-105657809D01*
X60191619Y-105734000D01*
X60039238Y-105772095D01*
X59772571Y-105772095D01*
X59620190Y-105734000D01*
X59544000Y-105657809D01*
X59505904Y-105581619D01*
X95948666Y-118514761D02*
X96091523Y-118562380D01*
X96329619Y-118562380D01*
X96424857Y-118514761D01*
X96472476Y-118467142D01*
X96520095Y-118371904D01*
X96520095Y-118276666D01*
X96472476Y-118181428D01*
X96424857Y-118133809D01*
X96329619Y-118086190D01*
X96139142Y-118038571D01*
X96043904Y-117990952D01*
X95996285Y-117943333D01*
X95948666Y-117848095D01*
X95948666Y-117752857D01*
X95996285Y-117657619D01*
X96043904Y-117610000D01*
X96139142Y-117562380D01*
X96377238Y-117562380D01*
X96520095Y-117610000D01*
X96853428Y-117562380D02*
X97091523Y-118562380D01*
X97282000Y-117848095D01*
X97472476Y-118562380D01*
X97710571Y-117562380D01*
X98520095Y-117562380D02*
X98329619Y-117562380D01*
X98234380Y-117610000D01*
X98186761Y-117657619D01*
X98091523Y-117800476D01*
X98043904Y-117990952D01*
X98043904Y-118371904D01*
X98091523Y-118467142D01*
X98139142Y-118514761D01*
X98234380Y-118562380D01*
X98424857Y-118562380D01*
X98520095Y-118514761D01*
X98567714Y-118467142D01*
X98615333Y-118371904D01*
X98615333Y-118133809D01*
X98567714Y-118038571D01*
X98520095Y-117990952D01*
X98424857Y-117943333D01*
X98234380Y-117943333D01*
X98139142Y-117990952D01*
X98091523Y-118038571D01*
X98043904Y-118133809D01*
X75628666Y-118514761D02*
X75771523Y-118562380D01*
X76009619Y-118562380D01*
X76104857Y-118514761D01*
X76152476Y-118467142D01*
X76200095Y-118371904D01*
X76200095Y-118276666D01*
X76152476Y-118181428D01*
X76104857Y-118133809D01*
X76009619Y-118086190D01*
X75819142Y-118038571D01*
X75723904Y-117990952D01*
X75676285Y-117943333D01*
X75628666Y-117848095D01*
X75628666Y-117752857D01*
X75676285Y-117657619D01*
X75723904Y-117610000D01*
X75819142Y-117562380D01*
X76057238Y-117562380D01*
X76200095Y-117610000D01*
X76533428Y-117562380D02*
X76771523Y-118562380D01*
X76962000Y-117848095D01*
X77152476Y-118562380D01*
X77390571Y-117562380D01*
X78247714Y-117562380D02*
X77771523Y-117562380D01*
X77723904Y-118038571D01*
X77771523Y-117990952D01*
X77866761Y-117943333D01*
X78104857Y-117943333D01*
X78200095Y-117990952D01*
X78247714Y-118038571D01*
X78295333Y-118133809D01*
X78295333Y-118371904D01*
X78247714Y-118467142D01*
X78200095Y-118514761D01*
X78104857Y-118562380D01*
X77866761Y-118562380D01*
X77771523Y-118514761D01*
X77723904Y-118467142D01*
X55308666Y-118514761D02*
X55451523Y-118562380D01*
X55689619Y-118562380D01*
X55784857Y-118514761D01*
X55832476Y-118467142D01*
X55880095Y-118371904D01*
X55880095Y-118276666D01*
X55832476Y-118181428D01*
X55784857Y-118133809D01*
X55689619Y-118086190D01*
X55499142Y-118038571D01*
X55403904Y-117990952D01*
X55356285Y-117943333D01*
X55308666Y-117848095D01*
X55308666Y-117752857D01*
X55356285Y-117657619D01*
X55403904Y-117610000D01*
X55499142Y-117562380D01*
X55737238Y-117562380D01*
X55880095Y-117610000D01*
X56213428Y-117562380D02*
X56451523Y-118562380D01*
X56642000Y-117848095D01*
X56832476Y-118562380D01*
X57070571Y-117562380D01*
X57880095Y-117895714D02*
X57880095Y-118562380D01*
X57642000Y-117514761D02*
X57403904Y-118229047D01*
X58022952Y-118229047D01*
X95948666Y-138834761D02*
X96091523Y-138882380D01*
X96329619Y-138882380D01*
X96424857Y-138834761D01*
X96472476Y-138787142D01*
X96520095Y-138691904D01*
X96520095Y-138596666D01*
X96472476Y-138501428D01*
X96424857Y-138453809D01*
X96329619Y-138406190D01*
X96139142Y-138358571D01*
X96043904Y-138310952D01*
X95996285Y-138263333D01*
X95948666Y-138168095D01*
X95948666Y-138072857D01*
X95996285Y-137977619D01*
X96043904Y-137930000D01*
X96139142Y-137882380D01*
X96377238Y-137882380D01*
X96520095Y-137930000D01*
X96853428Y-137882380D02*
X97091523Y-138882380D01*
X97282000Y-138168095D01*
X97472476Y-138882380D01*
X97710571Y-137882380D01*
X97996285Y-137882380D02*
X98615333Y-137882380D01*
X98282000Y-138263333D01*
X98424857Y-138263333D01*
X98520095Y-138310952D01*
X98567714Y-138358571D01*
X98615333Y-138453809D01*
X98615333Y-138691904D01*
X98567714Y-138787142D01*
X98520095Y-138834761D01*
X98424857Y-138882380D01*
X98139142Y-138882380D01*
X98043904Y-138834761D01*
X97996285Y-138787142D01*
X75628666Y-138834761D02*
X75771523Y-138882380D01*
X76009619Y-138882380D01*
X76104857Y-138834761D01*
X76152476Y-138787142D01*
X76200095Y-138691904D01*
X76200095Y-138596666D01*
X76152476Y-138501428D01*
X76104857Y-138453809D01*
X76009619Y-138406190D01*
X75819142Y-138358571D01*
X75723904Y-138310952D01*
X75676285Y-138263333D01*
X75628666Y-138168095D01*
X75628666Y-138072857D01*
X75676285Y-137977619D01*
X75723904Y-137930000D01*
X75819142Y-137882380D01*
X76057238Y-137882380D01*
X76200095Y-137930000D01*
X76533428Y-137882380D02*
X76771523Y-138882380D01*
X76962000Y-138168095D01*
X77152476Y-138882380D01*
X77390571Y-137882380D01*
X77723904Y-137977619D02*
X77771523Y-137930000D01*
X77866761Y-137882380D01*
X78104857Y-137882380D01*
X78200095Y-137930000D01*
X78247714Y-137977619D01*
X78295333Y-138072857D01*
X78295333Y-138168095D01*
X78247714Y-138310952D01*
X77676285Y-138882380D01*
X78295333Y-138882380D01*
X55308666Y-138834761D02*
X55451523Y-138882380D01*
X55689619Y-138882380D01*
X55784857Y-138834761D01*
X55832476Y-138787142D01*
X55880095Y-138691904D01*
X55880095Y-138596666D01*
X55832476Y-138501428D01*
X55784857Y-138453809D01*
X55689619Y-138406190D01*
X55499142Y-138358571D01*
X55403904Y-138310952D01*
X55356285Y-138263333D01*
X55308666Y-138168095D01*
X55308666Y-138072857D01*
X55356285Y-137977619D01*
X55403904Y-137930000D01*
X55499142Y-137882380D01*
X55737238Y-137882380D01*
X55880095Y-137930000D01*
X56213428Y-137882380D02*
X56451523Y-138882380D01*
X56642000Y-138168095D01*
X56832476Y-138882380D01*
X57070571Y-137882380D01*
X57975333Y-138882380D02*
X57403904Y-138882380D01*
X57689619Y-138882380D02*
X57689619Y-137882380D01*
X57594380Y-138025238D01*
X57499142Y-138120476D01*
X57403904Y-138168095D01*
X79843333Y-85542380D02*
X79510000Y-85066190D01*
X79271904Y-85542380D02*
X79271904Y-84542380D01*
X79652857Y-84542380D01*
X79748095Y-84590000D01*
X79795714Y-84637619D01*
X79843333Y-84732857D01*
X79843333Y-84875714D01*
X79795714Y-84970952D01*
X79748095Y-85018571D01*
X79652857Y-85066190D01*
X79271904Y-85066190D01*
X80224285Y-84637619D02*
X80271904Y-84590000D01*
X80367142Y-84542380D01*
X80605238Y-84542380D01*
X80700476Y-84590000D01*
X80748095Y-84637619D01*
X80795714Y-84732857D01*
X80795714Y-84828095D01*
X80748095Y-84970952D01*
X80176666Y-85542380D01*
X80795714Y-85542380D01*
X84923333Y-78430380D02*
X84590000Y-77954190D01*
X84351904Y-78430380D02*
X84351904Y-77430380D01*
X84732857Y-77430380D01*
X84828095Y-77478000D01*
X84875714Y-77525619D01*
X84923333Y-77620857D01*
X84923333Y-77763714D01*
X84875714Y-77858952D01*
X84828095Y-77906571D01*
X84732857Y-77954190D01*
X84351904Y-77954190D01*
X85875714Y-78430380D02*
X85304285Y-78430380D01*
X85590000Y-78430380D02*
X85590000Y-77430380D01*
X85494761Y-77573238D01*
X85399523Y-77668476D01*
X85304285Y-77716095D01*
M02*
